HIERARCHY
ROOT root
{
	OFFSET	0	13.1	24.9
	CHANNELS 6  Xposition Yposition Zposition Xrotation Yrotation Zrotation
	JOINT spine_1
	{
		OFFSET	0	9.99999	0
		CHANNELS 3  Xrotation Yrotation Zrotation
		JOINT spine_2
		{
			OFFSET	0	112	-10
			CHANNELS 3  Xrotation Yrotation Zrotation
			JOINT spine_3
			{
				OFFSET	0	206.5	19.3
				CHANNELS 3  Xrotation Yrotation Zrotation
				JOINT spine_4
				{
					OFFSET	0	110.4	14.6
					CHANNELS 3  Xrotation Yrotation Zrotation
					JOINT neck_1
					{
						OFFSET	0	71.8	-50.3
						CHANNELS 3  Xrotation Yrotation Zrotation
						JOINT neck_2
						{
							OFFSET	0	86.2	-25.8
							CHANNELS 3  Xrotation Yrotation Zrotation
							JOINT head_ee
							{
								OFFSET	0	179.8	-8.7
								CHANNELS 3  Xrotation Yrotation Zrotation
								End Site
								{
									OFFSET	1	0	0
								}
							}
						}
					}
					JOINT left_clavicle
					{
						OFFSET	-43.2	22.4	-70.8
						CHANNELS 3  Xrotation Yrotation Zrotation
						JOINT left_shoulder
						{
							OFFSET	-93.9	-5.79999	48.7
							CHANNELS 3  Xrotation Yrotation Zrotation
							JOINT left_elbow
							{
								OFFSET	-291.4	-30.8	15.2
								CHANNELS 3  Xrotation Yrotation Zrotation
								JOINT left_lowarm_twist
								{
									OFFSET	-110.7	-3.89999	13.6
									CHANNELS 3  Xrotation Yrotation Zrotation
									JOINT left_hand
									{
										OFFSET	-110.7	-3.89999	13.6
										CHANNELS 3  Xrotation Yrotation Zrotation
										JOINT left_ee
										{
											OFFSET	-80.8	-5.10001	12.1
											CHANNELS 3  Xrotation Yrotation Zrotation
											End Site
											{
												OFFSET	1	0	0
											}
										}
									}
								}
							}
						}
					}
					JOINT right_clavicle
					{
						OFFSET	43.2	22.4	-70.8
						CHANNELS 3  Xrotation Yrotation Zrotation
						JOINT right_shoulder
						{
							OFFSET	93.9	-5.79999	48.7
							CHANNELS 3  Xrotation Yrotation Zrotation
							JOINT right_elbow
							{
								OFFSET	291.4	-30.8	15.2
								CHANNELS 3  Xrotation Yrotation Zrotation
								JOINT right_lowarm_twist
								{
									OFFSET	110.7	-3.89999	13.6
									CHANNELS 3  Xrotation Yrotation Zrotation
									JOINT right_hand
									{
										OFFSET	110.7	-3.89999	13.6
										CHANNELS 3  Xrotation Yrotation Zrotation
										JOINT right_ee
										{
											OFFSET	80.8	-5.10001	12.1
											CHANNELS 3  Xrotation Yrotation Zrotation
											End Site
											{
												OFFSET	1	0	0
											}
										}
									}
								}
							}
						}
					}
				}
			}
		}
	}
	JOINT left_hip
	{
		OFFSET	-82.8	-127.5	0.300001
		CHANNELS 3  Xrotation Yrotation Zrotation
		JOINT left_knee
		{
			OFFSET	-28.2	-396.7	2.2
			CHANNELS 3  Xrotation Yrotation Zrotation
			JOINT left_ankle
			{
				OFFSET	-11.7	-411.3	35.4
				CHANNELS 3  Xrotation Yrotation Zrotation
				JOINT left_toes
				{
					OFFSET	0	-60	-88.6
					CHANNELS 3  Xrotation Yrotation Zrotation
					JOINT left_foot_ee
					{
						OFFSET	-22.5	-16.5	-42.2
						CHANNELS 3  Xrotation Yrotation Zrotation
						End Site
						{
							OFFSET	1	0	0
						}
					}
				}
			}
		}
	}
	JOINT right_hip
	{
		OFFSET	82.8	-127.5	0.300001
		CHANNELS 3  Xrotation Yrotation Zrotation
		JOINT right_knee
		{
			OFFSET	28.2	-396.7	2.2
			CHANNELS 3  Xrotation Yrotation Zrotation
			JOINT right_ankle
			{
				OFFSET	11.7	-411.3	35.4
				CHANNELS 3  Xrotation Yrotation Zrotation
				JOINT right_toes
				{
					OFFSET	0	-60	-88.6
					CHANNELS 3  Xrotation Yrotation Zrotation
					JOINT right_foot_ee
					{
						OFFSET	22.5	-16.5	-42.2
						CHANNELS 3  Xrotation Yrotation Zrotation
						End Site
						{
							OFFSET	1	0	0
						}
					}
				}
			}
		}
	}
}
MOTION
Frames: 11
Frame Time: 0.02
3123.4 629.887 -471.74 -138.827 -50.2219 -151.196 11.2885 0.117252 1.11346 11.2892 0.0461669 1.11866 11.2883 0.0296841 1.11922 11.2867 0.206061 1.10049 -20.6517 3.10452 0.124907 -20.7044 5.92592 1.4482 -0.0 0.0 -0.0 3.93439 6.10086 7.85664 -11.3257 -20.6814 58.2977 2.06513 -45.6461 0.869158 6.34431 0.179938 -0.790012 3.1169 -28.7588 7.68901 -0.0 0.0 -0.0 11.1172 5.67023 -22.248 -19.7945 -40.6378 -55.9732 0.303548 8.55161 -0.022695 -67.4008 6.21485 -5.27137 7.98465 15.6304 -53.7788 0.0 0.0 0.0 24.5847 24.2682 5.71237 -33.8939 -0.124666 5.12502 9.15859 27.2192 -1.383 10.5957 -0.0 -0.0 -0.0 0.0 -0.0 59.1171 -18.1396 -0.0526272 -12.801 -0.311939 -1.93565 -7.29175 24.778 -1.29735 11.0095 -0.0 -0.0 0.0 0.0 0.0 
3143.63 626.364 -460.29 -139.48 -50.7251 -152.146 11.1978 0.255111 1.12806 11.1985 0.182817 1.14201 11.2003 0.164244 1.14483 11.1987 0.342976 1.10453 -20.6387 2.34969 0.823015 -20.6619 4.12323 1.76998 -0.0 0.0 -0.0 2.94421 5.99377 6.0488 -13.1519 -21.897 59.6291 2.11831 -46.3736 0.907416 5.91869 0.170616 -0.736442 2.98063 -28.7462 6.82826 -0.0 0.0 -0.0 11.3594 6.70906 -22.8043 -16.4249 -40.5927 -54.6912 0.285853 8.05986 -0.0201389 -65.9178 6.02654 -5.24698 7.88356 12.7983 -55.3556 0.0 0.0 0.0 25.2833 28.3505 4.10041 -34.057 -0.132583 5.14879 4.70119 30.2597 -0.73319 4.25911 -0.0 -0.0 -0.0 0.0 -0.0 59.4314 -17.8402 1.06339 -15.071 -0.321775 -2.28378 -4.09442 23.1183 -0.710386 15.3349 -0.0 -0.0 0.0 0.0 0.0 
3159.24 632.224 -448.625 -139.123 -51.0938 -152.154 11.0919 0.280899 1.14846 11.0927 0.207256 1.164 11.095 0.186181 1.16756 11.0933 0.368227 1.12351 -20.1799 2.46704 0.927998 -20.2036 4.28847 1.8985 -0.0 0.0 -0.0 2.2506 5.54093 4.75683 -16.914 -22.5447 60.5132 2.09123 -46.0056 0.887877 5.7658 0.16717 -0.717216 2.72009 -29.0674 5.00812 -0.0 0.0 -0.0 11.063 7.14257 -22.1603 -15.1324 -40.0571 -58.0959 0.389944 10.9332 -0.0373181 -64.4777 5.84429 -5.21862 7.60272 8.27504 -56.1436 0.0 0.0 0.0 25.8901 30.1641 2.913 -35.1183 -0.185752 5.30291 7.52382 29.786 -1.16079 -3.93216 0.0 0.0 -0.0 0.0 -0.0 58.6317 -16.1208 1.35353 -16.6524 -0.320474 -2.5264 -0.600495 19.8428 -0.099931 20.366 -0.0 -0.0 0.0 0.0 0.0 
3179.43 632.453 -438.238 -139.431 -50.6135 -153.167 11.0193 0.302658 1.19995 11.0201 0.225695 1.21677 11.0229 0.202133 1.2209 11.021 0.392402 1.17367 -19.3934 2.94349 0.00243711 -19.4371 5.67031 1.2003 -0.0 0.0 -0.0 1.93471 5.98565 4.21593 -19.4195 -22.6168 60.9529 1.91537 -43.491 0.76404 5.65746 0.164697 -0.703597 2.36896 -28.7604 2.9392 -0.0 0.0 -0.0 10.8292 7.1225 -21.6476 -16.7503 -39.521 -59.6235 0.5144 14.296 -0.0645099 -64.3365 5.82646 -5.21559 7.52403 6.94616 -56.3169 0.0 0.0 0.0 26.8761 28.7788 2.97581 -35.818 -0.222368 5.40399 10.2752 30.2288 -1.57756 -11.7105 0.0 0.0 -0.0 0.0 -0.0 56.9861 -13.8241 1.69063 -17.7445 -0.315667 -2.6939 3.04548 15.8946 0.484747 24.4555 -0.0 -0.0 0.0 0.0 0.0 
3203.83 637.463 -424.28 -139.249 -49.8222 -154.057 11.2491 0.397102 1.64941 11.2506 0.291356 1.67132 11.2551 0.265841 1.67557 11.2516 0.527096 1.61259 -19.6326 3.21986 -0.737106 -19.6917 6.58449 0.639993 -0.0 0.0 -0.0 -0.0862271 9.50607 0.976869 -16.2987 -20.5683 66.6994 1.58681 -38.1666 0.548995 1.76101 0.0587102 -0.217248 1.76747 -28.9085 -0.939613 -0.0 0.0 -0.0 10.9826 6.85579 -21.9794 -18.2071 -43.3652 -63.046 0.651563 17.8884 -0.102548 -66.9826 6.16169 -5.26498 6.90348 4.69585 -50.9775 0.0 0.0 0.0 28.1215 19.6937 5.57097 -40.5607 -0.502824 6.07659 5.13096 30.0916 -0.798398 -15.8916 0.0 0.0 -0.0 0.0 -0.0 54.5768 -11.1149 1.03192 -16.1416 -0.321627 -2.44803 11.4081 13.4923 1.73141 26.0051 -0.0 -0.0 0.0 0.0 0.0 
3250.96 644.137 -412.548 -143.158 -49.756 -159.754 11.1016 0.688378 2.05693 11.1038 0.556125 2.09655 11.1181 0.519275 2.10597 11.1129 0.845292 1.9976 -19.7822 3.172 -0.789481 -19.8407 6.51796 0.580018 -0.0 0.0 -0.0 0.64653 13.7166 2.67313 -24.8843 -23.5546 62.5785 1.40533 -34.8421 0.44099 -0.762467 -0.0274884 0.0934914 1.48361 -28.5735 -2.58233 -0.0 0.0 -0.0 11.0351 5.30957 -22.0592 -19.0063 -38.4678 -63.8617 0.744455 20.243 -0.132898 -64.0076 5.78495 -5.20836 7.25389 2.82891 -56.2349 0.0 0.0 0.0 32.7822 15.0908 6.42081 -56.5754 -1.84176 8.13746 28.8901 27.1127 -4.03086 -19.3017 0.0 0.0 -0.0 0.0 -0.0 51.4951 -10.4815 3.76459 -19.6618 -0.299509 -2.98761 18.32 14.4055 2.71134 29.0034 -0.0 -0.0 0.0 0.0 0.0 
3266.0 646.191 -400.648 -142.932 -50.8379 -159.488 11.155 0.500486 2.20042 11.1576 0.359489 2.22779 11.1646 0.322053 2.23351 11.1583 0.67067 2.15468 -21.0522 4.06854 -2.73054 -21.1655 9.18479 -0.75215 -0.0 0.0 -0.0 0.61641 13.1599 2.56804 -24.0327 -23.6766 63.4893 0.991437 -26.1565 0.230323 -3.21034 -0.124118 0.39107 1.96517 -28.3307 0.588334 -0.0 0.0 -0.0 10.7549 2.36425 -21.3485 -21.5768 -30.3111 -66.032 0.891252 23.8212 -0.187992 -62.2675 5.56603 -5.16616 7.21393 3.57866 -55.2193 0.0 0.0 0.0 35.7931 10.8262 6.20856 -60.9086 -2.29889 8.62478 32.4284 26.2861 -4.41776 -26.6069 0.0 0.0 -0.0 0.0 -0.0 49.1647 -9.74727 4.41112 -18.3679 -0.311492 -2.78945 20.8064 13.9898 3.03149 28.6445 -0.0 -0.0 0.0 0.0 0.0 
3292.92 645.16 -387.066 -146.152 -52.097 -162.838 10.9655 0.503158 2.53646 10.969 0.340791 2.56332 10.9752 0.289249 2.56964 10.9666 0.691319 2.49179 -22.316 5.51483 -4.31864 -22.5457 12.658 -1.45124 -0.0 0.0 -0.0 -0.417407 14.9449 1.08962 -23.008 -24.3969 65.6266 0.689394 -18.8554 0.114472 -2.25645 -0.0849496 0.275595 3.0265 -28.5151 7.24173 -0.0 0.0 -0.0 11.0229 6.13662 -22.0534 -23.0608 -26.2049 -69.1435 0.920423 24.5103 -0.199934 -60.6799 5.36742 -5.12184 7.36989 6.54454 -54.8252 0.0 0.0 0.0 39.8763 6.53691 7.8224 -68.6014 -3.19675 9.40065 37.9432 25.8017 -4.9913 -27.2013 0.0 0.0 -0.0 0.0 -0.0 45.9029 -8.47092 5.5653 -20.6705 -0.287065 -3.14188 29.5215 13.467 4.07261 21.2316 -0.0 -0.0 0.0 0.0 0.0 
3299.53 645.884 -381.332 -145.73 -53.1506 -162.239 10.6419 0.430087 2.76214 10.6461 0.253523 2.78389 10.648 0.181554 2.7895 10.6377 0.61966 2.7259 -22.2205 4.71075 -4.30215 -22.3839 11.1074 -1.82417 -0.0 0.0 -0.0 -0.391822 12.9039 0.874853 -28.2066 -28.9168 63.8527 0.742836 -20.2025 0.132338 -5.88101 -0.243959 0.710771 3.62089 -27.8416 11.4185 -0.0 0.0 -0.0 11.5249 10.3358 -23.2069 -17.6011 -31.0285 -69.1876 0.584666 16.1526 -0.082964 -56.7979 4.88743 -4.99038 6.79882 2.26937 -51.4087 0.0 0.0 0.0 41.0227 7.28649 6.19132 -68.8121 -3.22278 9.42018 40.7603 21.9498 -5.14811 -33.1611 0.0 0.0 -0.0 0.0 -0.0 45.0891 -7.96235 5.93789 -20.1418 -0.293926 -3.06105 27.1342 12.8695 3.78593 36.5039 -0.0 -0.0 0.0 0.0 0.0 
3317.16 646.821 -372.023 -145.058 -53.1032 -161.216 10.8684 0.591536 2.76569 10.8725 0.41442 2.7977 10.8821 0.35371 2.80601 10.872 0.792265 2.71505 -20.786 3.77064 -4.95828 -20.866 9.7234 -2.97257 -0.0 0.0 -0.0 -0.877954 13.9677 0.216664 -28.6937 -28.7999 64.6694 0.705252 -19.2575 0.11965 -3.87339 -0.152475 0.470951 2.44009 -22.0641 6.68926 -0.0 0.0 -0.0 11.6405 12.9115 -23.4373 -18.115 -31.2608 -69.946 0.442631 12.3675 -0.0479584 -54.8786 4.65358 -4.91342 7.04893 2.43418 -54.0904 0.0 0.0 0.0 42.265 8.77576 4.32817 -71.5933 -3.57292 9.66901 37.4992 20.0945 -4.79287 -33.2397 0.0 0.0 -0.0 0.0 -0.0 44.416 -9.90617 6.25277 -20.7171 -0.286424 -3.14901 28.1869 13.3485 3.91878 35.5443 -0.0 -0.0 0.0 0.0 0.0 
3326.35 649.166 -368.267 -143.504 -55.0783 -158.071 10.8995 0.419066 2.36179 10.9026 0.267974 2.38365 10.9059 0.217084 2.38882 10.8985 0.591528 2.32462 -20.7655 3.6971 -4.92384 -20.8415 9.56629 -2.97422 -0.0 0.0 -0.0 0.0132893 13.9836 1.6695 -31.9074 -36.3632 63.5469 0.487253 -13.5702 0.0579732 2.07843 0.0685802 -0.25659 2.8506 -22.0889 9.39186 -0.0 0.0 -0.0 11.4572 13.7247 -23.003 -15.4964 -33.4433 -67.4442 0.198039 5.60307 -0.00969098 -49.7555 4.04317 -4.67006 7.31251 3.80561 -56.2298 0.0 0.0 0.0 44.7804 8.46461 1.81705 -73.1507 -3.77416 9.80088 30.9115 19.3894 -4.09472 -32.7124 0.0 0.0 -0.0 0.0 -0.0 42.0297 -2.06052 4.54774 -20.4945 -0.289432 -3.11498 33.5792 9.28483 4.40803 25.9541 -0.0 -0.0 0.0 0.0 0.0 
